<svg width="17" height="24" viewBox="0 0 17 24" fill="none" xmlns="http://www.w3.org/2000/svg">
<path d="M9.91119 1.03513C9.52773 -0.313935 7.52347 -0.376747 7.08881 1.03513C4.83003 8.43013 0 10.4397 0 15.6517C0 20.2661 3.80182 23.9997 8.5 23.9997C13.1982 23.9997 17 20.2661 17 15.6517C17 10.4134 12.1806 8.46388 9.91119 1.03513V1.03513ZM8.5 20.9997C5.51776 20.9997 3.09091 18.6442 3.09091 15.7497C3.09091 15.3353 3.4367 14.9997 3.86364 14.9997C4.29057 14.9997 4.63636 15.3353 4.63636 15.7497C4.63636 17.8173 6.36969 19.4997 8.5 19.4997C8.92693 19.4997 9.27273 19.8353 9.27273 20.2497C9.27273 20.664 8.92693 20.9997 8.5 20.9997Z" fill="#39C57E"/>
</svg>
