<svg width="33" height="32" viewBox="0 0 33 32" fill="none" xmlns="http://www.w3.org/2000/svg">
<path d="M17.8729 29.5896C17.9244 30.0672 17.5696 30.5757 17.0627 30.7064C14.4993 31.3672 11.9476 31.2743 9.69628 30.4281C7.18081 29.4826 5.16552 27.6438 3.9311 25.1678C2.69669 22.6918 2.30463 19.7018 2.80952 16.6145C3.31441 13.5271 4.69112 10.496 6.74788 7.94337C8.80465 5.39074 11.4391 3.44369 14.2842 2.37342C17.1293 1.30314 20.0435 1.16294 22.6207 1.97233C25.198 2.78172 27.3101 4.5004 28.6628 6.88899C29.8908 9.0573 30.4374 11.6796 30.248 14.4497C30.216 14.9178 29.7813 15.3263 29.3031 15.3611V15.3611C28.8209 15.3962 28.4783 15.0382 28.5065 14.5668C28.6489 12.1907 28.1697 9.9438 27.1146 8.08069C25.9332 5.99465 24.0887 4.49367 21.8378 3.7868C19.587 3.07993 17.042 3.20238 14.5572 4.13709C12.0725 5.07179 9.77178 6.77222 7.97554 9.00151C6.17929 11.2308 4.97697 13.878 4.53603 16.5743C4.09509 19.2706 4.43749 21.8818 5.51555 24.0442C6.5936 26.2066 8.35363 27.8125 10.5505 28.6382C12.4564 29.3546 14.6088 29.4528 16.778 28.9324C17.3211 28.8022 17.8178 29.0786 17.8729 29.5896V29.5896Z" fill="#9F31B0"/>
<path d="M26.0198 9.61677C26.0198 9.61677 25.0099 13.5798 22.9901 21.5059L27.183 16.2308C27.3454 16.0325 27.5933 15.9333 27.927 15.9333H28.9549C29.2435 15.9333 29.3968 16.0325 29.4148 16.2308C29.4418 16.4202 29.3427 16.6411 29.1172 16.8936L24.3697 22.4797L26.5203 29.2561C26.6014 29.5266 26.5969 29.7205 26.5068 29.8377C26.4256 29.9459 26.2362 30 25.9387 30H25.1948C24.9152 30 24.7214 29.9639 24.6132 29.8918C24.514 29.8106 24.4283 29.6438 24.3562 29.3913L22.5573 23.2101L20.9748 29.3913C20.8665 29.7971 20.5915 30 20.1497 30H19.6763C19.3427 30 19.1127 29.9188 18.9865 29.7565C18.8512 29.5852 18.8151 29.3688 18.8783 29.1073L23.9369 9.58972C24.0451 9.18395 24.3246 8.98106 24.7755 8.98106H25.4112C25.9161 8.98106 26.119 9.19297 26.0198 9.61677Z" fill="#9F31B0"/>
</svg>
