<svg width="22" height="24" viewBox="0 0 22 24" fill="none" xmlns="http://www.w3.org/2000/svg">
<path d="M0 18.9984V21C0 22.6547 3.69531 24 8.25 24C12.8047 24 16.5 22.6547 16.5 21V18.9984C14.7254 20.3625 11.4812 21 8.25 21C5.01875 21 1.77461 20.3625 0 18.9984ZM13.75 6C18.3047 6 22 4.65469 22 3C22 1.34531 18.3047 0 13.75 0C9.19531 0 5.5 1.34531 5.5 3C5.5 4.65469 9.19531 6 13.75 6ZM0 14.0812V16.5C0 18.1547 3.69531 19.5 8.25 19.5C12.8047 19.5 16.5 18.1547 16.5 16.5V14.0812C14.7254 15.675 11.477 16.5 8.25 16.5C5.02305 16.5 1.77461 15.675 0 14.0812ZM17.875 14.5969C20.3371 14.0766 22 13.1109 22 12V9.99844C21.0031 10.7672 19.5379 11.2922 17.875 11.6156V14.5969ZM8.25 7.5C3.69531 7.5 0 9.17812 0 11.25C0 13.3219 3.69531 15 8.25 15C12.8047 15 16.5 13.3219 16.5 11.25C16.5 9.17812 12.8047 7.5 8.25 7.5ZM17.673 10.1391C20.2512 9.63281 22 8.63906 22 7.5V5.49844C20.4746 6.675 17.8535 7.30781 15.0949 7.45781C16.3625 8.12813 17.2949 9.02813 17.673 10.1391Z" fill="#39C57E"/>
</svg>
